# xmcd
#
# Track frame offsets: 
#        150
#        15632
#        39794
#        60993
#        88333
#        104292
#        129101
#        157357
#        186605
#        208996
#
# Disc length: 2908 seconds
#
# Revision: 1
# Processed by: cddbd v1.5.2PL0 Copyright (c) Steve Scherf et al.
# Submitted via: ExactAudioCopy v0.99pb4
#
DISCID=880b5a0a
DTITLE=del Hoyo Trío - del Hoyo Trío
DYEAR=2004
DGENRE=Jazz
TTITLE0=Pop
TTITLE1=La Vuelta de Manu
TTITLE2=Caoba
TTITLE3=Nueva Voz
TTITLE4=Bemsha Swing (T.Monk)
TTITLE5=Rhythm A Ning (T.Monk)
TTITLE6=Despedida
TTITLE7=Vitreaux
TTITLE8=Blues Bill
TTITLE9=Venezia
EXTD=YEAR: 2004
EXTT0=
EXTT1=
EXTT2=
EXTT3=
EXTT4=
EXTT5=
EXTT6=
EXTT7=
EXTT8=
EXTT9=
PLAYORDER=
